<svg xmlns="http://www.w3.org/2000/svg" width="800" height="400" viewBox="0 0 800 400" version="1.1"><path d="M 133 66.500 L 265.500 132.890 235.748 132.945 L 205.996 133 102.998 81.499 L 0 29.998 -0 37.252 L -0 44.505 88.250 88.697 L 176.500 132.888 88.250 132.944 L 0 133 0 146.500 L 0 160 180 160 L 360 160 360 80 L 360 0 346.500 0 L 333 0 333 60.500 C 333 93.775, 332.774 121, 332.499 121 C 332.223 121, 277.541 93.775, 210.984 60.500 L 89.970 0 45.235 0.055 L 0.500 0.110 133 66.500 M 440 80 L 440 160 620 160 L 800 160 800 146.500 L 800 133 712.250 132.945 L 624.500 132.890 712.250 88.944 L 800 44.998 800 22.498 L 800 -0.001 667.001 66.499 L 534.003 133 504.251 132.945 L 474.500 132.890 607 66.500 L 739.500 0.110 725.248 0.055 L 710.997 0 588.998 61.001 L 467 122.002 467 61.001 L 467 0 453.500 0 L 440 0 440 80 M 0 253.500 L 0 267 88.250 267.056 L 176.500 267.112 88.250 311.303 L 0 355.495 0 377.748 L 0 400.001 132.999 333.501 L 265.997 267 295.749 267.055 L 325.500 267.110 193 333.500 L 60.500 399.890 75.235 399.945 L 89.970 400 210.984 339.500 C 277.541 306.225, 332.223 279, 332.499 279 C 332.774 279, 333 306.225, 333 339.500 L 333 400 346.500 400 L 360 400 360 320 L 360 240 180 240 L 0 240 0 253.500 M 440 320 L 440 400 453.500 400 L 467 400 467 338.999 L 467 277.998 588.998 338.999 L 710.997 400 755.248 399.945 L 799.500 399.890 667 333.500 L 534.500 267.110 564.252 267.055 L 594.004 267 697.002 318.501 L 800 370.002 800 362.502 L 800 355.002 712.250 311.056 L 624.500 267.110 712.250 267.055 L 800 267 800 253.500 L 800 240 620 240 L 440 240 440 320" stroke="none" fill="#ffffff" fill-rule="evenodd"/><path d="M 91.083 0.396 C 91.719 1, 331.926 121, 332.499 121 C 332.774 121, 333 93.775, 333 60.500 L 333 0 211.833 0 C 145.192 0, 90.854 0.178, 91.083 0.396 M 467 61.001 L 467 122.002 588.250 61.391 C 654.938 28.056, 709.687 0.605, 709.917 0.391 C 710.146 0.176, 655.583 -0, 588.667 -0 L 467 0 467 61.001 M 0 89 L 0 133 88.250 132.945 L 176.500 132.890 89 89 C 40.875 64.861, 1.163 45.085, 0.750 45.055 C 0.337 45.025, 0 64.800, 0 89 M 712 89 L 624.500 132.890 712.250 132.945 L 800 133 800 89 C 800 64.800, 799.888 45.025, 799.750 45.055 C 799.612 45.085, 760.125 64.861, 712 89 M 0 311 C 0 335.200, 0.337 354.975, 0.750 354.945 C 1.163 354.915, 40.875 335.139, 89 311 L 176.500 267.110 88.250 267.055 L 0 267 0 311 M 625.083 267.390 C 625.313 267.605, 664.763 287.406, 712.750 311.391 L 800 355.002 800 311.001 L 800 267 712.333 267 C 664.117 267, 624.854 267.176, 625.083 267.390 M 467 338.999 L 467 400 588.667 400 C 655.583 400, 710.146 399.824, 709.917 399.609 C 709.687 399.395, 654.938 371.944, 588.250 338.609 L 467 277.998 467 338.999 M 211.500 339.160 C 145.500 372.186, 91.313 399.387, 91.083 399.604 C 90.854 399.822, 145.192 400, 211.833 400 L 333 400 333 339.500 C 333 306.225, 332.663 279.025, 332.250 279.055 C 331.837 279.086, 277.500 306.133, 211.500 339.160" stroke="none" fill="#041c6c" fill-rule="evenodd"/><path d="M 0 15 L 0 29.998 103.028 81.514 L 206.056 133.030 235.533 132.765 L 265.010 132.500 132.505 66.251 L -0 0.001 0 15 M 360 80 L 360 160 180 160 L 0 160 0 200 L 0 240 180 240 L 360 240 360 320 L 360 400 400 400 L 440 400 440 320.003 L 440 240.005 620.250 239.753 L 800.500 239.500 800.761 199.500 L 801.022 159.500 620.511 159.755 L 440 160.011 440 80.005 L 440 0 400 0 L 360 0 360 80 M 607 66.500 L 474.500 132.890 504.500 132.890 L 534.500 132.890 667 66.500 L 799.500 0.110 769.500 0.110 L 739.500 0.110 607 66.500 M 0.456 200 C 0.456 222.275, 0.588 231.388, 0.749 220.250 C 0.910 209.113, 0.910 190.888, 0.749 179.750 C 0.588 168.613, 0.456 177.725, 0.456 200 M 133 333.500 L 0.500 399.890 30.500 399.890 L 60.500 399.890 193 333.500 L 325.500 267.110 295.500 267.110 L 265.500 267.110 133 333.500 M 535.083 267.391 C 535.313 267.605, 595.013 297.531, 667.750 333.891 L 800 400.002 800 385.002 L 800 370.002 697.002 318.501 L 594.004 267 564.335 267 C 548.018 267, 534.854 267.176, 535.083 267.391" stroke="none" fill="#cc0c2c" fill-rule="evenodd"/></svg>