<svg xmlns="http://www.w3.org/2000/svg" width="800" height="400" viewBox="0 0 1600 800" version="1.1"><path d="M 575 531.508 C 259.025 532.136, 0.388 532.729, 0.250 532.825 C 0.112 532.921, 0 593.075, 0 666.501 L 0 800.001 800.250 799.751 L 1600.500 799.500 1600.774 667 C 1600.925 594.125, 1600.804 533.487, 1600.505 532.250 L 1599.962 530 1374.731 530.183 C 1250.854 530.283, 890.975 530.880, 575 531.508 M 0.486 666.500 C 0.486 740.200, 0.605 770.202, 0.750 733.172 C 0.895 696.142, 0.895 635.842, 0.750 599.172 C 0.605 562.502, 0.486 592.800, 0.486 666.500" stroke="none" fill="#ffce00" fill-rule="evenodd"/><path d="M 869 258.557 C 531.025 259.234, 197.238 259.835, 127.250 259.894 L 0 260 0 396.287 L 0 532.574 40.250 532.308 C 62.388 532.161, 422.213 531.525, 839.862 530.893 C 1484.692 529.918, 1599.356 529.953, 1600.097 531.122 C 1601.072 532.661, 1601.367 261.119, 1600.393 258.582 C 1599.848 257.162, 1593.836 257.017, 1541.643 257.164 C 1509.664 257.254, 1206.975 257.881, 869 258.557 M 0.486 396.500 C 0.486 471.850, 0.605 502.527, 0.750 464.672 C 0.895 426.817, 0.895 365.167, 0.750 327.672 C 0.605 290.177, 0.486 321.150, 0.486 396.500" stroke="none" fill="#db0404" fill-rule="evenodd"/><path d="M 0 130 L 0 260 98.250 259.952 C 152.287 259.925, 512.175 259.307, 898 258.578 C 1417.055 257.598, 1599.691 257.545, 1600.235 258.376 C 1600.639 258.994, 1600.976 201.113, 1600.985 129.750 L 1601 0 800.500 0 L 0 0 0 130 M 0.485 130.500 C 0.485 202, 0.604 231.103, 0.750 195.172 C 0.895 159.242, 0.895 100.742, 0.750 65.172 C 0.604 29.603, 0.485 59, 0.485 130.500" stroke="none" fill="#040404" fill-rule="evenodd"/></svg>